# xmcd
#
# Track frame offsets:
#   182
#   19590
#   34315
#   48665
#   62930
#   77092
#   91322
#   104612
#   124337
#   139735
#   152715
#   165735
#
# Disc length: 2419 seconds
#
# Revision: 0
# Processed by: cddbd v1.5.1PL2 Copyright (c) Steve Scherf et al.
# Submitted via: GXTranscoder 2.0.1939
#
DISCID=a409710c
DTITLE=joão mineiro e marciano - sucessos de ouro
DYEAR=1990
DGENRE=sertanejo
TTITLE0=nosso juramento
TTITLE1=no mesmo lugar
TTITLE2=minha serenata
TTITLE3=meu desespero
TTITLE4=ainda ontem chorei de saudade
TTITLE5=não consigo esquecer minha mulher
TTITLE6=liguei pra dizer que te amo
TTITLE7=amor de amigo
TTITLE8=viola esta chorando
TTITLE9=chuvas de maio
TTITLE10=aline
TTITLE11=se eu não puder te esquecer
EXTD=
EXTT0=
EXTT1=
EXTT2=
EXTT3=
EXTT4=
EXTT5=
EXTT6=
EXTT7=
EXTT8=
EXTT9=
EXTT10=
EXTT11=
PLAYORDER=
